<svg width="40" height="32" viewBox="0 0 40 32" fill="none" xmlns="http://www.w3.org/2000/svg">
<path d="M32.6689 31.156L32.075 29.6773C29.413 29.3962 26.8701 28.9411 24.6765 27.9765C23.3093 25.8255 23.0476 24.4693 22.7859 23.1131C22.7701 23.0311 22.7543 22.9491 22.7383 22.867C20.241 21.5639 17.3467 19.7993 14.5 16.9535C13 16.9535 9.00002 16.9535 6.00002 15.9756C5.50002 15.5 4 15 2.50002 13.5C2.00003 13 1.5 11.5 1 9.5C3.5 10 7 10.5 10.5 11C13 12 17.3946 11.5 17.6973 12C18 12.5 20.502 15.8536 22.0481 16.9535C22.7604 16.168 23.7486 15.8846 25.4871 16.1813L26.0691 16.6256C26.9874 15.6161 28.2852 15.7066 29.5758 15.9756C32.1551 20.3191 35.4644 23.1562 39.6533 24.1786C39.4803 24.9398 39.1413 25.5485 38.2783 25.6761C38.9292 26.2799 38.2856 27.3189 37.3307 27.4956C36.9793 28.4585 36.5202 28.815 35.6261 28.7607C36.0991 30.2398 34.4309 30.7526 33.8706 29.7393C34.2617 30.5127 33.7197 30.7198 33.1777 30.927C32.9965 30.9963 32.8153 31.0655 32.6689 31.156Z" fill="#176BD7"/>
<path d="M26.7286 21.3226C22.7892 18.7175 19.8892 15.3344 17.6451 12C10.5 11 2 9 0.999983 9.5C1.49995 12 2.00005 13.5 4 15C5.78884 16.3417 8.5 17 14.5 17L17 19.3243C19.8566 21.4612 23.5652 23.495 28.3271 25.2646" stroke="#111619" stroke-width="0.717515" stroke-linecap="round" stroke-linejoin="round"/>
<path d="M22.0111 16.9933C22.7256 16.1295 24.4334 15.7676 25.4126 16.1978C26.0111 17.0065 27.4521 18.7409 28.4783 19.4983" stroke="#111619" stroke-width="0.717514" stroke-linecap="round" stroke-linejoin="round"/>
<path d="M26.1725 16.5666C26.9415 15.6487 28.8408 15.7723 29.5799 16.1342C32.17 20.7372 35.3682 22.9915 39.4742 24.1241C39.292 24.9428 38.7173 25.9889 37.1153 25.5" stroke="#111619" stroke-width="0.717514" stroke-linecap="round" stroke-linejoin="round"/>
<path d="M22.9019 23.0383C23.3641 25.0696 23.8428 26.9747 24.9546 28.1088C27.0015 29.098 29.6128 29.4619 32.2024 29.4386C32.635 29.8573 32.6877 30.4271 32.7106 30.8395C33.4935 31.0718 34.1653 30.3299 33.8279 29.6402" stroke="#111619" stroke-width="0.717514" stroke-linecap="round" stroke-linejoin="round"/>
<path d="M34.6289 28.593C35.1187 29.0062 35.0508 29.5035 34.921 30.0102" stroke="#111619" stroke-width="0.594653" stroke-linecap="round" stroke-linejoin="round"/>
<path d="M35.1292 26.8437C36.4468 27.5443 36.6845 27.3691 37.3551 27.5451C37.4738 28.3785 36.5151 28.8464 35.669 28.7356" stroke="#111619" stroke-width="0.594653" stroke-linecap="round" stroke-linejoin="round"/>
<path d="M36.3815 26.0639C36.8994 26.4098 37.4329 26.6179 38.1521 26.504" stroke="#111619" stroke-width="0.594653" stroke-linecap="round" stroke-linejoin="round"/>
</svg>
